/* XPM */
static char *_2eb8d4f5e5f4dfec7c181b678294bf0KTzrLaIVhMhj4gFo[] = {
/* columns rows colors chars-per-pixel */
"64 64 38 1 ",
"  c #0E750E",
". c #0E7C0E",
"X c #176617",
"o c #166C16",
"O c #186B18",
"+ c #157515",
"@ c #147C14",
"# c #187218",
"$ c #187B18",
"% c #068F06",
"& c #0E840E",
"* c #0C8C0C",
"= c #069406",
"- c #059C05",
"; c #0C940C",
": c #0C9C0C",
"> c #138413",
", c #138B13",
"< c #188318",
"1 c #188B18",
"2 c #119311",
"3 c #119B11",
"4 c #05A405",
"5 c #04AC04",
"6 c #0BA30B",
"7 c #0AAB0A",
"8 c #04B404",
"9 c #04BC04",
"0 c #09B309",
"q c #09BA09",
"w c #11A311",
"e c #10AA10",
"r c #04C404",
"t c #02CB02",
"y c #09C309",
"u c #02D202",
"i c #01DC01",
"p c #00E200",
/* pixels */
">#>*ui73@$>:9t423<$:8u7,6#+69r8*6$16u94w2$2795522<2398=.:$1-598@",
"9*7*ru9r477-5r5rr6=64r8ru;-789t49*76r88iq677549u97q685-49;5648t4",
"7=:&qr80=q:;684806*:-q4qq;;3659=8*-;q55r77-w4-5q007;64=:0*6::49-",
"6&*+3067&72+&7-66:.1;7-67*,>2-0*6&,>3660-32,*;67663>;=%;6&;1;-7*",
"2+$X@22;>3$#o2*2;,#$$2*26@$$@>;>;+$#@,;6*,<$$@2322>#>@ &2@1<@@;>",
"$$*-#+>1#@*4$1>@$>>6><@>1O,5$#@X$#>;$#11$$2->#>>$$*4>#o+1#eu$#$O",
">9987,@;>=9962<2;7880,+,3:9q->$#>;547><3&5954>>326r96>@.24ip=,#&",
"5u9589:t8-587rqtt95588:8t674654=5;6=qq6t9994547rt89879q5t9uu-8=t",
"4r8465-94-45;qq9r84:7-449--33-5*6*;&:76q458;;-789787:7r-r9tr*7-9",
"-94;;6*5-%-6267706;22,*:7,321&;.2@@+>;;7:6:>,*677-6;*-q;559q&;;0",
"*8:;,2&6**=:>2:;w;*:,@>>3>6y$+@o@@;:+@>3,2:;>>23:;6;@26*6606+,&6",
"@;&>11$3&.**><23;:6:3>>&3:tu;&#>>9856>@3*;56;@,2;;;>>>,>;;21X$+;",
"O@+@ue+2>@,*7;*;w;:675:;q8yr-8=t5u8488*06;665633;;2,5;,>2,@@-*@@",
">+,=ii66&,;788777;654q9-q5qr;7494r5478-q4=68588673:598-*w>;789r>",
"t-8-tu9t5q94585rr757-8q7y5rq*-;7-94667:r4-7745qrr89785-8t-9858u5",
"9-4*9r89497;644886-;>67-7676@**:*8=;2;*5-:-6;68qqq7;44-49-7445r4",
"0;;&0060;0:*;;:66;2@@23;w;2>O$$;&;&>1,>w*&,,>,6667;,;;;:7*-2:4q=",
"6&*@67;6*3,@;32*,,>@-2>>2>++-*>@O+#+t7+2@++>-;12;2>>6;&*6&,1;:0*",
";+$#2:;3>2>;:6:22>,-58;&3@,6599&>#,;ii43&>>658-33,>2;6*,3@1,,&;>",
"$$;->,2w22:8::4077q757-59=q058u5t=8:tt9r-78470477;;5;;*2w@6t>@$O",
"*9985;27;48q7-6q7q8685=4q-8745r49-7%rtq9-r86586q075846;;74uu-*+>",
"5t858q-t544577899q0-54=48;6--59:8;-&qr78-q7;484qq5446988t8rr-8-t",
"4r7-67-q4--:*-0q076,:;*-6*2,;-5*6*,@:067;7:>*64776;:;0q4q7q7*4-9",
"-86;2;27;*22>,:w:3,@>&.&3>2<>.:@;++O>2;;>3>++2;::;>,>;6;7:67&:;0",
"*7;6>>>3,@;6>$121>;6>#o+,+eu@#+O$$*-#+>,@>*-@,1>1,*6>,2,;*6e$>*6",
"@-;32>@3*;84-@,;;6r86>>.;7ip=&+&>9984,@3&=8962>2;4456,1;w:76>@+2",
"O>>;r7>q74q48-6qr5r859q4truu-8-t5u8589:r8-5q7r09t845q766q6;65;@@",
">>;7rq4q54946-88959565r-99tt*7-94t8448-94=584qr8y5458556y668898>",
"t-86074r85r-:;7q8486:6q=88rq&:;5=q4:;6;8-=4720qqr8467:67t47q77r5",
"946;,;:q677*,&:66-7&$*7*760:$,&6*8:;,3&6*%;->36776;*,;-6q--w2684",
"0;2>@+>w;33$>o,23,3oo$;>;22@O#+2>;>@<,$;> @>O122w2@@>1,2e2*@1,-:",
"6>#$9,#,1,1<7@<>@>1+7,<#1>$#-*$$O$##yw#1+Oo<42@$1>O@63$$2@o$9,>*",
"6+16t96w2$279502,<2;98=@3$1:598@>#>*ui72@$@6qt423<$65u7;w#+6rr8*",
"r*76r89uq677549ur7q685-49;7748t49*7*ru9r-75-5r5r96;65r8ru;-788t4",
"7*6;q55r77-64-5q0q7;44%-0*6;-49:5*-&qr88;q-;484806*;-q78q;:;679=",
"6*,>:66q::,,*;67663>;=%;4&2>;-8*6*,+w866*72+&7:66:.,27-67*,>;-0*",
";+$#@*;w,,>$$.;:22<#>@ &;@1>@&;@2+$X@,;;&3$#o2,;;,#$@;*2:@$$@>:@",
"$O,;$$<1$$2-@#<<$$,7>#o+1#et$#$O@$*-#$>1#@,6$1>$$<&7<@$11o,7$#@O",
">;5-7>@3>5r77>>:;4r94>@.34pp=>#>>9987,$3&=9942>,27580,#,3:98->$o",
"5:4;qq6t9994547rr8987qq5t9uu=9=t5u8589:t8-595rqtu95588-8t476457=",
"6*;&674q785;;-5q9487-7r-99tr*6-r4r8477:95=45:099r84:76449-633:5*",
";@@+>2;6;6:,>;:77-6-,6q;059q&-;7-94-;6;5-%-6,67706;22**;e*22>>;.",
"$@2=+$12*2:;>>,;:;6*$26*6676+,&:*q=;>2&:*&;->2::3;;;1@>&3>6y@#@O",
">9956>>3,;562>,2;;:>>@2>3;2>O+@;@;&>1,@3*.;,><223:-6;>>&w6tu=,+>",
"5u558q*04;665633w;;*4;,>2,>$-;@@O$#$u7+2>@,,5;*;w;66476;q8rr-8;t",
"4r5458-q4*48088673;798-*6>2789q&&#*=pu46*>;489767;67789:q5qy=7-9",
"=97-67;94-70459trq9485-8t-9858u5t-8-tt9t5q94585r9777-0q497rq*-=0",
"*8-;,;*0:=:6;67q887;44-49-7445r49-6;9r8r4q5:6448844**67-0676@*&6",
".;&>11>6*>&,>2:7672,;;*-5;-2;49:5;:&0q77;7:*;;:66;;@@23*6;;>O$+;",
"O$++t7$2@+@>4*,2;2,>6;.*:>,1;:5*6&&@w7;6*w,@;;22,,>>-;1>2>++-,@@",
">+>=ii63&@1:78-331>*:-,,3@1,,&;@2$##,:;3,,>2;6:2211-58=&3@1459q>",
"t=8-tt9r-08775607;:7;:*2w@7t>$>O@$;4>,2w22:0-66076q557-59;q858u8",
"947=rt89-r84556q555867;;76tu-*+&>9988;,7;4887-607q8484=4q-0748r4",
"5;-&qr8q:q7:484q974649q5t8rr-8-t5u85884t5448758r9q7:74=48;6:-49-",
"6&*+:067;7;>*64776:;;784q78q;7-94r4-67-96--:;-70876*6;;;7*3,;:5*",
"2+$O@2;;,;>++2;;:;>2>;6:7:66&;;0-84;,3;7;*;,>,66:31@>&.&;@,>@&;>",
"@$*-+$1,@>;-@1>>>,,4>12,3,67@>&6*7;6>1>;>@;->@,2>>;4>+#+,+eu+#@O",
">9984,@;>=8962>;;4456,1*3:76&@$2@:;:2>>3*:87-@1;24r86>@.34pp;>#&",
"5u8589=t5-887rqqt8459767y6;67:@@o>&;y7,q74878-69r5r859q4t9uu=9=t",
"4t8468-94=58-qrqr5478576y-68888&>>;7r84q54q66-0q959565t-r9tt*5-9",
"-q4-:6*8-%47;0q0y5467665y45q77r5t-86074r859--*6q8786;-q;88rq&:=7",
"*8;;13&6;%;:>:7606;*,2-6q66:;684947;2;;0777;,&:76-7*$;7*660w@*&6",
">;>@<1@2& @>O1223;@><>,*72,@1,:;7:2@$+>6;33@<O,22,;Oo$2>;32@O+@;",
"O$#+rw#>#O#<62<$1>O<63$<1@#$q,>*6>$$9,#11>1<5><$>>1+7,<#1>##-,$#"
};
