/* XPM */
static char *_d52c02b98a44657841fbfc6db367da7HpetsFc48wEfehla[] = {
/* columns rows colors chars-per-pixel */
"64 64 110 2 ",
"   c #3D2E1B",
".  c #3E311D",
"X  c #412F1C",
"o  c #492F1D",
"O  c #45321E",
"+  c #4C321E",
"@  c #52331F",
"#  c #5C351F",
"$  c #463220",
"%  c #4C3520",
"&  c #543521",
"*  c #5A3621",
"=  c #553922",
"-  c #5C3923",
";  c #623722",
":  c #633A24",
">  c #6B3C25",
",  c #723D26",
"<  c #733F28",
"1  c #644327",
"2  c #644B2C",
"3  c #6C4E2E",
"4  c #7D4429",
"5  c #704F2F",
"6  c #784C2A",
"7  c #71522E",
"8  c #6B4F31",
"9  c #6E5131",
"0  c #6F5834",
"q  c #725433",
"w  c #7B5734",
"e  c #765834",
"r  c #7C5A36",
"t  c #775939",
"y  c #7D5C39",
"u  c #7C6036",
"i  c #7E613A",
"p  c #815D37",
"a  c #825D3A",
"s  c #8A5E3C",
"d  c #84623C",
"f  c #8A643D",
"g  c #87683E",
"h  c #8A693F",
"j  c #92653E",
"k  c #916B3F",
"l  c #876541",
"z  c #8A6540",
"x  c #856A41",
"c  c #8C6A42",
"v  c #936C43",
"b  c #996E46",
"n  c #8D7247",
"m  c #957245",
"M  c #9A7345",
"N  c #9C7947",
"B  c #947549",
"V  c #9A7549",
"C  c #96794B",
"Z  c #9D7A4B",
"A  c #9E7D51",
"S  c #A1764A",
"D  c #A27C4D",
"F  c #A37D51",
"G  c #A87E50",
"H  c #9B804E",
"J  c #9F8051",
"K  c #A2814E",
"L  c #AC824C",
"P  c #B3864F",
"I  c #BB874F",
"U  c #B7884C",
"Y  c #B88A4F",
"T  c #A58352",
"R  c #A98655",
"E  c #A58955",
"W  c #A68458",
"Q  c #A98559",
"!  c #A78A58",
"~  c #AA8B5A",
"^  c #B48A52",
"/  c #BC8D54",
"(  c #BE8F58",
")  c #AD915B",
"_  c #BE9254",
"`  c #BF925A",
"'  c #BF985A",
"]  c #C08E54",
"[  c #C19256",
"{  c #C1955B",
"}  c #C39A5D",
"|  c #C5A15F",
" . c #C39661",
".. c #C59D62",
"X. c #C89E66",
"o. c #C6A264",
"O. c #C8A465",
"+. c #C7A865",
"@. c #C9A967",
"#. c #C7A569",
"$. c #C9A46A",
"%. c #C7A96A",
"&. c #CAAB6B",
"*. c #CBB26E",
"=. c #CBAD70",
"-. c #CCB472",
";. c #CEBA75",
":. c #CFBE79",
">. c #D1B877",
",. c #D0BD78",
/* pixels */
"%       % + . . : 1 = % = 1 6 6 > % . . - : - & .       $ * - - $ $ @ : ; ; : : * - - ; ; : > > # # * # * + o O . . + & * - * - ",
"c g y d x d i x x d g i x B B c y t t q t y y i d i e t a l z c l y y r y f c v v m M k k k f d r 7 7 q w w w w d g v M v x c c ",
"T K Z Z T N N K A J K Z H Z Z Z C m B N A A A A Z Z Z A F Z M V A V v f h v V M m c m m N D K D G S b v v v k v N Z T K C M B Z ",
"&.o.} ..o.{ Y / } +.+.o.} ' ' ` / ^ { ..%.%... .[ { ..o.#.......} } } ..o.o.o...X.o.#.#.&.-.-.*.&.-.-.+.{ / _ [ } | o.} ' } +.*.",
"-.*.o.X.#.{ U U ` o.-.-.*.-.*.+. .` ..#.&.=.%.o.} ..o.+.#.&.&.&.X. .]  .} o.o.{ ( ` X...{ _ / ` +.&.%.o.` ^ _ ` } } | ' ' ' #.*.",
"D K N v h f d j h m N Z N Z D Z b c c n A R T D S N D S V V M S V S S S G T G V b V M m v c M Z D V m h m M M B C N Z Z N M B M ",
"z v s w p y a s g d a w w a f f a y t t z b b z h h j h p p w p v z s p p a a p a f a t 9 q y z d t e r g v V c h g h c c h i d ",
"@ + X X @ * & & @ @ & o % * ; * = * * & & = * & & ; * @ + @ # ; > ; # * @ @ & & * ; ; & & * * - - = & = * - & & + O + * - # = + ",
"    . $ & & ; ; * @ + O O + # @ O + = & & + + $ + + + o o o @ @ o o @ @ X   X + # * $ X   + & - % $ O $ $ $ . . . . % = = $ . . ",
"g x c c c x x g i i i d d u d g i d g g d p d p y y p f s j s p p s s a f p f d p p y p y e 9 t a d d y y y t y f g g i i d x i ",
"E ~ ) ) ! H C m h h k m v M m m B H E T D D N M n k M M D G G G M M M D G G D D v v v M Z M v V D F F F m v V G T H n n h m C H ",
";.;.;.-.*.&.&.&.%.+.o...#.&.&.%.+.*.;.;.-.%.o.o.+.@.+.X.......} { } O.&.*.*.O.O.} } ..o.&.%.#.%.-.=.$.$.#.&.=.$.@.&.&.@.@.;.:.:.",
"%.-.;.:.:.;.&.%.%.&.#.o.$.o.&.=.&.@.&.&.%.O.o.#.&.-.*.*.&.#.O.} } [ } } } } O.@.%.&.&.$.$.&.$.X.X...{ [ {  .} } { o.-.&.@.*.&.@.",
"N Z T R R A V m m N Z N m M V Z Z Z C J S V Z T ) ) ) E T Z m k M M M b M M k S V S V V V b M S Z V V V V V V b M D T D H Z Z N ",
"g d r e r y p f d d f g f d f f x c c v v c c m N C n v m v b b k j b b j f p p l s a y t q w l z w q e a z p q 9 w y y p g c c ",
"o + @ * ; - * * @ O   . @ * & & : > > > : ; : : : : : : > > , 1 < , > > > > > ; ; > : * % o & : : * & @ & & @ + $ & & @ % & * + ",
"* * : : # # = - ; @ @ @ @ # # # @ * - - & & $ & & & = & O o + # - = * * # o o o + # ; ; # # ; : * # : 1 : > : # * # # # # @ # : ",
"z c k d e e d h v h d p p p s f d d d i i y d y y a a a y y d d g d d y w p a s f d f d d d f d y u d h v N m g d g k k h d d h ",
"R D S N k M M m m k k j j j v b M m v h d y i y v v c l h h k B N H D G G S S b M N D S k N M k n M Z Z B V m v N N D N k k N K ",
"&.&.| @.O.} [ [ [ } ..X.O.$...{ ' } ....o...} ` ( ] (  .} ` Y L / ' X.=.$.X.{ { } } } | } } [ ] } %.&.@.#.#.+.O.| | } ] P U ] | ",
"] } O.O.+.} } } } } X.O.$.X.X.} ` ' ..o.@.%.O...X. ./  .X.$.#.#.} [ } +.$.O.o.O.X. ./ I / I ( { } .. . . .` ..o.&.O.o.o.} [ } } ",
"k k N D K K L G M S G S M v m V F Z V m V A A m z l j S Q F F A m v V N Z b b M Z c y a f v b V A A A B c z z b D Z V N N N M m ",
"k M v b v v h d d j j s p e e e i y 9 8 q a x a t 8 t t y y y y 5 8 q y y w q t y t q t l c v M v z f a a y y l c c h h f d d k ",
"; , < , ; # - ; # @ O o + # * - & * & $ $ & % o & $ $ = = & $ % +   X * ; * & : $ X X X % * * - - ; ; * $ $ $ % & * # : # @ + @ ",
", ; ; @ & % & * @ + X . $ & - > ; - - & $ . $ $ * & & - = = = - - % = 1 > = @ : = = % $ $ = * + $ % - ; = + O O % % + @ # ; > , ",
"e e r p a d a a d w q 3 8 q y z z y q 2 2 2 9 0 d g x c B C C n a t 0 d c f d h x m n x d d g d i c c v g i e r y d d d g f j z ",
"M M M M V N S A D V m v z v Z W F v d y l c V A M M B B A E E H m c M Z J N M C C Z N m m v v v N T R D m g d p g m m M m v f f ",
"&.o.o.| O.O.&.=.=.&.%.$...' ..=.-.#.} { o.X.X.$.+.+.O.o.%.:.;.../ } | o./ P ` ' +.{ / [ } { [ ] { ..X...[ ] ] I _ ' } +.&.=.&.#.",
"O.} } o.o.O.$.&.$.X...#.%.$.$.=.%.o.#.$.=.$.#.%.+.%.&.+.*.>.&.[ [ o.O.} / / } &.$...[ } o...} { [ / ` } o.O.O.} ' ..+.=.*.-.@.o.",
"D G V V S N b z g d d v V A A V V B V A W W Q ~ ! W F Z D D G N V Z D G F D D N b V F S V M V B v M Z D Z F T T m m m C Z Z m n ",
"p f d v b B c l a y t a l l f l x l i l l l l v c c d t e r p w 5 q w s p w e q a v M x i d x x i i g g x g d x d i d i d i e 3 ",
"+ @ ; , 4 4 : & X       $ * ; ; ; : * - * - - : - - ; : : @ o         X       + , 1 - % % = 1 1 = .   . = - %       . O $ + + o ",
"% O & ; > > : : # # ; ; ; : > ; # * * # @ + O O   . % & * = - - +       + O . . : : = % = 1 6 6 : % . . = > - % .       $ * - : ",
"d p w p y l x c v m m k k k f d w w 7 7 w y w w d c v m v c c h c f y d x d i c x g x i x m B c i t t e t t y l d y e e y l l c ",
"Z m k g g v M M m m m m N D D D D V b v v v v v M H T K N M B H T T Z A K Z C T H J T Z Z Z J Z C m m N A J A A Z Z F F A A B V ",
"} } } ..o.O.X.....o.%.&.&.-.-.-.&.>.-.%.{ ] / _ } | o.} ' ' o.*.@.o.} } +.' Y Y ' o.+.o.} ' ' ' / ^ ` o.@.#... ._ ' } O.$... ...",
"X.{ ] { ..X.....` { ..} { _ / ( O.%.&.o.` ^ / ' } } o.' ' ' @.*.>.&.o.$.+.} I P _ +.*.;.-.*.&.#.` ` X.#.&.=.$.o.....o.O.&.&.=.=.",
"V S S G G G Z V v m Z M j v M A D V v h m m M M V N Z C N M B M D D V v h d f j j m V Z D D D V n v z B F W T F S N Z S V V V V ",
"v j l a p a a a a s a t q q y x g e e w c v m c h h h h h h d u h v s w a w p d f d p r w d f f a y t t x b v z g j j h p p w p ",
"> ; * * @ @ @ * * ; - & & * * ; * * = = - - = = + O + * : - @ + @ + X   @ # # @ & @ + + + # * ; = * * & & * = & * # # @ o @ # > ",
"o o # @   X   + & * %     O & = % % $ $ $ O .   . . % = = O .         O @ = : ; = & + O O + # & O $ & & & $ % % + + & o X o @ @ ",
"w s d d d p f g a p a a y w q y d d d a y r y y l g g i i i g g g g c x h g x g i i d d i d d g i d g f f p d p y y p f z j s p ",
"b M S S D D D V v v v V N b c V Z F F Z B v Z F E C M v n n C H E ~ ) ) ! H B B h g v v m m B m M H R T D Z N M k n m N G G G S ",
"{ } O.&.*.&.O.O...} ....&.&.#.&.-.=.$.$.%.$.=.%.@.&.&.&.&.;.,.:.:.;.-.>.*.&.&.&.@.+...o.#.&.&.#.+.-.;.;.-.%.o.o.+.+.+.| .... .} ",
"} [ } } } } O.&.$.=.$.O.=.&.#.X.....[ { {  . .{ } #.*.&.&.*.*.%.%.*.;.:.,.;.&.&.%.%.@.+.#.X.&.=.%.@.%.&.#.+.O.#.%.-.-.-.&.%.O.} ",
"k b S M M b N S V V S V V v V S Z V Z b V V V b v Z T D N N Z N N Z T R R F V v m M Z N M v V Z H N Z H D Z V G ) ) ~ ! T V M v ",
"k b k b j p p p l l a y e 5 w z z w q e a l y 5 9 r y y d f h h z a y w e y d f d d g f g d d g x c c v v c c m C M m n b b b v ",
"4 , > > > > > > ; > : * % o & : : - & & * & & % + & & + + & # @ + + @ * ; * * * & O   . @ * # @ - , > : : ; : : : : : : > > > < ",
"# # # @ @ o o o o * ; ; - ; : ; # # 1 : : 1 : # # # # # # # # ; * - ; : # # # - ; @ @ + # # * # & & - - & % + % & * = & O O + # ",
"h d g u w s a s s s f d p d d d y u u h m N n d d f k k h d d h h h h d e e d j v h f p w p f f f d d d i y d y y p a p p y d d ",
"N N H K G G S b b Z V N N k k k m B A A V V m m k S K N k k N K R K N M k m M M v k k j j v v v B m c c d i i i v m c c h h h m ",
"` } O.&.$...{ { { ..X...| } [ [  .%.%.%.#.o.+.o.| | } _ P L ] | *.+.O.O.+.| { [ [ } ..X.O.O.X.[ { } ........' ` _ / / ' } ' P P ",
"' { ..$.$.O.| O.X. ./ I ] ] ] [  ... . .` { ..O.*.@.o.X.} [ } } ] } | @.O.} } } } ..X.O.O.X.X...{ { ..o.@.&.#. . . .(  .X.$.$.#.",
"m v v N D M M M V v a a f j M N F F A b v z c b L D V V N N M M k k k G K T R D M S D S M m v V K Z V c V A A M c s j F W T S A ",
"q 8 q y a w 7 e y t q t l c v v v l l a y y a a h c h g d d d j v v N k v v f d s f j f p e q w i y q 8 q d x y t 9 9 t s t y t ",
"o   o & * * # ; $ X . X $ - - - - : : * $ . O % @ = - : : + @ @ ; , 4 , ; - # ; # @ + o + * * - = * & o $ & & o & $ $ * = & $ % ",
"= % * > : = = ; = = % . $ & * % O % = : = % O O + + + & * ; > , , : ; & @ @ & & & + o   $ % - > ; * = & $ $ $ $ * & = - - = = - ",
"d e 0 d c d f g c B n l d x z g f c c c g i e e u d d g f s j l w e w p p d a d p t 9 3 8 q y z z y q 8 2 2 8 9 a l x c C C C n ",
"M n B H K Z V C A C A M M v v v N T R D m h d a h m M m m c h h b M M N V N S Z A V b v v v V E F v a y g v V A B V m M H J J H ",
"Y } | ../ P / } #.` ^ ] { { ] ] { { X.} { ] ] I / ' ..+.&.&.&.+.@.O.} O.O.O.&.-.=.=.%.#...{ ..=.-.#.' ' ..#.#.$.#.%.o.| -.:.;.+.",
"[ o.O.} / / } &.$. .' } o.X.} { [ _ [ } o.O.o.} } } o.%.-.-.%.o.O.o.} X.O.$.$.&.%.X.X.#.$.$.=.$.&.o.o.&.%.$.%.%.+.%.+.%.-.;.&.' ",
"N Z D G G D D V M Z A Z V M N M c m Z T Z F T T m m m B Z Z B c D S V V V V m v z a i v V V A V V B Z A W W Q ~ ! ! G N Z T G V ",
"5 5 w d a w q 9 p v v l i i x x i i g x g f x x i i d l d i e 5 a d l v b V v f a y t y l l l l l l y l l l z v c c a t e w y w ",
"      X       @ > , 1 % % = 1 1 * .   . - - % .     . O O + + o + @ ; < 4 < ; % X   . X % * : : : : * - - - - : - ; ; : ; @ o X "
};
